<mxfile host="app.diagrams.net" agent="Mozilla/5.0 (Windows NT 10.0; Win64; x64) AppleWebKit/537.36 (KHTML, like Gecko) Chrome/139.0.0.0 Safari/537.36" version="28.1.0">
  <diagram name="Page-1" id="WwXihF_DpC0p9Sf5VatD">
    <mxGraphModel dx="928" dy="479" grid="1" gridSize="10" guides="1" tooltips="1" connect="1" arrows="1" fold="1" page="1" pageScale="1" pageWidth="1100" pageHeight="850" math="0" shadow="0">
      <root>
        <mxCell id="0" />
        <mxCell id="1" parent="0" />
        <mxCell id="y4IVKAAIsv4u7UtEAo2L-3" value="" style="rounded=1;whiteSpace=wrap;html=1;fillColor=none;arcSize=2;strokeColor=#0476CD;strokeWidth=3;" vertex="1" parent="1">
          <mxGeometry x="426" y="447" width="298" height="300" as="geometry" />
        </mxCell>
        <mxCell id="y4IVKAAIsv4u7UtEAo2L-39" value="" style="rounded=0;whiteSpace=wrap;html=1;dashed=1;strokeColor=#00CC00;" vertex="1" parent="1">
          <mxGeometry x="563" y="467" width="151" height="130" as="geometry" />
        </mxCell>
        <mxCell id="y4IVKAAIsv4u7UtEAo2L-1" value="" style="rounded=1;whiteSpace=wrap;html=1;fillColor=none;arcSize=3;strokeColor=#3399FF;strokeWidth=2;" vertex="1" parent="1">
          <mxGeometry x="254" y="151.3" width="540" height="255.7" as="geometry" />
        </mxCell>
        <mxCell id="y4IVKAAIsv4u7UtEAo2L-8" value="" style="rounded=1;whiteSpace=wrap;html=1;arcSize=3;fillColor=none;dashed=1;dashPattern=1 2;strokeColor=#00CC00;" vertex="1" parent="1">
          <mxGeometry x="294" y="187" width="480" height="170" as="geometry" />
        </mxCell>
        <mxCell id="y4IVKAAIsv4u7UtEAo2L-4" value="" style="shape=image;verticalLabelPosition=bottom;verticalAlign=top;imageAspect=0;aspect=fixed;image=data:image/png,iVBORw0KGgoAAAANSUhEUgAAARwAAACxCAMAAAAh3/JWAAAA6lBMVEX///8AeNMAdtT6//8AbcorgsWu2fP//v/1//8AddMAbcgActEAeNHB5O0AcM8siMrx//9Dl9lSmcoAb8ahxeGXxN+GuNkAc8EAbc254fUAcM0AasoAdMchhM12tdaMvuQSeMFkoNXo+PpvqdKoz+jV7vV9vdoAacLD4fAAectUmNBcpdjg+P4AbcDd8Pix0eBOl9Ky2e2vzd1/tNsce76w2OZsq9EvjtWSweLT8PSj1exio8/B3e1xseKx2fKj0uRDkMdvw+uSyezO8P+v6fqs4PjS//9gsuA4mN0ch9pto8oAcLWfwttPlMAbA2E/AAAMiklEQVR4nO2dYWOiOBqAIaSVkDZgU1sq0FqEAsq4uu5MnVpnetPbu529u///dy4BVHQUtbVVaZ4PbdUIydPkTQIEJEkgEAgEAoFAIHhnfgt3nYM9phbUdp2F/aVGzJYhSZVd52MPqTA5cr0hmtYiEjkngA6UXedkD0nlyDLsuqJlzZPIYQAcXe06L3vHWA7TE/RF05plKkeWTT0WTStPXo6MbG/X+dkrZuTIADbVXedor8jLkWWi+2JAOKWG83JkREXTGuPWdHkO2DZ2nat9QAlvAxPMy5Fx43nXOds58cDR0K9qeFz+4LMJ9eqWErTITNq0Wu6uc7gz4hsHLq4006YVfshOS7k6g6TQTNK0rP6uM/p+VLLhS3zTgHilGo5ZjaUPMuZJCmn0uhperSUD2b1d5/r98PsNszjSzDctOPoYswmjV9VWR5p56vrXVS1LdcPf36kMb4Tfj8zlHXdB3SmcqKvx1fmtLlt/HPCoSP1eDdaLwYv0WO2FTavz+ablBBDzDR8drJznPq2/pNJM7BDHz29PicPzL/cUQjzeKjhQOa6n0/W7p2V6tOy0n+r3bm4b1CR4xvZBylHDpg1f2pxyZUfYOnM73nU1opDw7g7MbvQA5bB5JXxNc0q1EPPkj9bN8dcHy8TLtnZwcpQhfXEMzrxAjTrNWthJ4vExLEh7aHL65svFIGIGl9X+w2nuoFeZ5PSsDYUktQxgVLe0++HgMZ4vbonk+PamTYo1Iy2IqqPvobqwpOWRYzhrROJJlwMwgSdHrcG3rwXHjssjp02Wl2RaJF5dCNTsexZ13VUTzNLI8QoKMikQJoQ2uv1jf71TDWWRc1o48DuRETYhZFE3/CXqFlASOW5j6WCNR5cg6o6++xsfpimHHKWFTxYUALHwQvXbwbf4ZWfsyiHnYlKKk3T0wse6lHXS3uqoW0Ap5Fxp+erCpka0wadGrz7BWwY58WT0h9jU6P5LLYy3cxS4BHIUfRyM0eizvzr9+pRATnMy+oOn0lbPOR2+nNzoL5GzRQ5ejqpPRziakDOLqgMhZxlCTgFMzomQswQhpwAhpwAhpwAhpwAhpwAhpwAhpwAhpwAhpwAhpwAhpwAhpwAhpwAhpwAhpwAhpwAhpwAhpwAhpwAhpwAhpwAhpwAhpwAhpwAhpwAhpwAhpwAhpwAhpwD1aLqmXsiZQ+ndtPSoztenAnHZ2wIUt/NY+1JtBELOctzfhuePz1u6CFkqmRxJGlpECy6rox+fN18G8islkyN1UbLwoQ4h/dm+8PzOa67xL5sc4whl61rTBeK0oY8Gx19fdjOusslJlsHm16Wl661sp9v//ugamxWodHKkUFu0Zg/gOoFa9DQc9J6NdcNR+eRIDwXLyxEiLGI7rVEt7IzTL18sUUI5a9yYgEUjCKEzvPAK13yWUY50tvIGMQDwgI2wadqN6mhw5S+M2KWUY+gb3AmFd2qQRk73zgvd2Y6/lHKkuLG+nBlHztPo/NtXNyt3OeUs6bIK5SQ/EkWs42+Nvoeu9KdWkP5w5Wx+R5TZkiPW8VvRz6IkByxHunmVnbT8RbXvoOWsd+OPFXYKPiNPhyxH1V99x7cCkoccHTBx9Mpbmy0HWP1Dv3+pT19/S7yFakDwY9dlez2v67KWgujnXZdsG9Tewg5u+FKlDLeTHr6+y5rHfIp3XaotoWy9yzJvDz0UT3Eb2w3K8GLXJdomXz/l7SCY1qRF92laDQBayZ5J08vNHvHdc78BX9jSgIzsLZ813D25LguzRmGEzch8kR98VJZQnGM0uUc9TiOG0Wvb/DkQG4Sjk8OfMSxG6Y4rCp6EU9dr0c3uXm+ODnmmuZzJbUtxvq+JvQ2eewBgaR827NsL5Ej8xtu6tdbtpcGnsj5HpDK5Wd68HIZ/4VgrwzOfMZSYGlwoh0+RFL/vFHfvpl7yB1/1+aPiFtScBNa9N8yl7csclrGbmlLhXRZYKodhPLLufVH3BeAHeIIu77IK5DDch9anX54qB4KH98rhLoltUCyHp/G61sxzWBD9IE+SO9VWymHENX36BB/slHDGsBjPWuuAg+IPdN59AUC6Je+m8vTXfZ6gmnTv1od64rL6uEHa0+bg7XIiEAgEAoFAIBAIBAKBQPBBUIy1l9mthWpkbHyCwXBf81ixN6HpOPo2TyL97WQ8jb5tsN140HKiSB/29umEVhwAYG7zVMkZBgAhBGSAzct1r9oy+pQg/jUEnT06b3NBWFmOtrjBMyTbl4xPAQGydbZWQ+k4BCD4yWkEJkZWe1/O+BkUnERA2+BA8CrOEPEUVVWN2HOwTM7WKGncQMBshYaiuMl32tvLzauoEdQfmKiVvfS9Ka4knXpemH7get7vvJid5J2Ol9p0H2s1rzNbfCbnPPtTHdblyUU4bm+clm3Ly76jsj8lqYWBNk5mtNl3ktb46HkdSQ29yR4qktLxarXeZBHyG6M6APoxZT/S13cWGWOx8l9b1k36gW+Zl2qlIp1bVlNtUqvJC9m0TZZQ6z7nN5mTw4qNQJQ0rHhITZZYa7EdGZemlTl/sKyWFFqgPr2OSe1i0OBRuWpax74O2R5gN81e3ILEJFDrhm+kY5YriLqS1Eb1Zvr6LqhTzoks8/xf4/pYTh00eCnPCfrSJojLYYECQ2pDjGn+itAZOT7zzq9R8i8xgie2hrDNTPYxzvbXQvBRukWomqt9vgaSqlNF9X/YRNM0IiN6JfFFuBhRm2rYvH47Izm6yGR5P7WAnZ6HdP2EZ0cmI4nLIfNyTDnCWvfmkV9FgPUr1/DbEDm5sDsjh+2AezAaAFdPWdpWHekKL76d1qcAHKmqDcyZXu0MoVvWhqpIRvD2tOP/sAGwY0nqmagaK/FpO3iX7j6EvNZXJB2RmbNtQ4xb/H+5QA6RQZTU6gFEeuqkia3cFWyzclhMq0rSDUHdtG60sfnIlSX1iW2NbZ8ZgjNhZIABM8jlkPR0amzLmP01IPV03dH7nFAeonoixTOBk/tv9FldSF7m5GgTOWm8UHRQz5p+TMethDMnpw7uJfUIaVlQ8ym/8oDt75a/6iLqS88BqM8U1yOAa6+ibNFnRfLqcqQktTZ8tzF0bAOaZEu9TENDljmY1GJpcbNCevZd2f7nVUrEa8eYOTmYfdahIMrS/hlh1lG7EaDMfieJeHEgw5kLLyY1Z7xzybVlZpH9BNDph+8zDLqpozab0Liu0SfT8oUUaVmdWNSsUFpLOlSWYQZCznSjs3LaPPb65jQtQPcSb4nE4xb42Nyw5fqvMYfLgcfjtxrJbefCiO0Ka0dX29WwEOMSsJBnMSAb7ac3vavw6gTHeb3GOJMTmpmccUfD5VxO0PNFy8lxbaA9SB0zn/aJvf8cYDa00oHNWy/rrbq5bMVUNrPeary0UYnS7BmeTtlY2noHOx7rIzkYI4xknI5LjSNkTq4qua6j7G9W1WdrDm8Z/5rMwJf1Vm0ss/J3WKuYTavoSHNZ/PnCE/XgTHd1hsAlb+xVgEfZW2xEQLOWF9ciwHu8t8YBqHub0UXp7pUuJreTq9IuiJyO4VjVn5PDhih4LHEmqzk5St+UTT68e8J4kG00S1szSW2AYTp8ZMO+ycIiZQRlKxkSVgGgWRhvY+BMvhrXecB64wvnrqxs9Jqgo+QCtibrdKdvPpoybsWSEur4FzlXrAf+keT32x/5eMrnVvy34vZ0AkgyJOhZvHXxN71smYyrob90NuFNyhhHCMD2qcLXl+h1Nh9LkvBxjsPtqdcwmVHUbhNXrgwu33yg0wX13CVrvIsy2OBFRv++S3nkgzfW3KjjUPLXybwcqWnK8P6idncPzaN8s8Ig4odzIhvy6WRajDYE9epd7dqB5tN4wCPLZBxTnhtYxppzfx9BAGAr3RqT85PQbr8dEZmw/5hqY9qteTU2KHvzmelzINPcf5wNYlnD1xEAOCW52C+kydEZ8+mZjuVMxjRKH7JgRTAmTn6uc8YXFiVg87I2nmAOWVo2S8LmUdZS2PgTTPfvtinm4U9GJBpk36ki7aFlsZwAZPILCdmUjmBimog4bz4K/DvQhvmWexFoR5JOJwRJtfLbNqVOTekE2n+4nP8G8O/JV8JhpGm0681U8v9p2QacYf4DlpZqtOWN65jSoEG+Avh9h31Oq7VJwZmcY8m7Z1uqZt/yrx22P2ewRwcLCw8Gqxtk1FiRVnFnakQih+EqM2n26TBzZfyzsuET7ytLkq+9kbGc+Vy8G/t8JXlejmCOncvZ65oDA1FzltHxF99qUCAoZp+bvEAgEBTxf04fGp+Yhi8LAAAAAElFTkSuQmCC;clipPath=inset(0% 16.9% 1.41% 15.49%);" vertex="1" parent="1">
          <mxGeometry x="414" y="411" width="66.02" height="60" as="geometry" />
        </mxCell>
        <mxCell id="y4IVKAAIsv4u7UtEAo2L-7" value="&lt;font color=&quot;#003366&quot;&gt;Azure Cloud&lt;/font&gt;" style="verticalLabelPosition=bottom;html=1;verticalAlign=top;align=center;strokeColor=none;fillColor=#00BEF2;shape=mxgraph.azure.cloud;" vertex="1" parent="1">
          <mxGeometry x="262.01" y="117" width="70" height="48.47" as="geometry" />
        </mxCell>
        <mxCell id="y4IVKAAIsv4u7UtEAo2L-9" value="Pipeline" style="shape=image;verticalLabelPosition=bottom;verticalAlign=top;imageAspect=0;aspect=fixed;image=data:image/png,iVBORw0KGgoAAAANSUhEUgAAAOEAAADhCAMAAAAJbSJIAAAAyVBMVEX///8pY+EqZOEtZuEoYuCUsvIsZeErZOEQR70qY+GRsPIWS79PgvAPRr0TSb7W4Phzm/Lo7vwHVt6HqfG1w+gAOrrS2/EAL7cANLhOfOhfjfKZtvNIfO0iX+C4y/aLrPEAQbxolPHQ2vcAUt4zVsEiWtTH1vl7nu03a+JTf+YATd7x9PulvPYpT7/h6Po/cOMTWt8bUsuIoutIdeOtvvGEmNcAR8nBy+p5jtQAJ7eyvuVog9WoteJXcsqVptw9X8SDmd2zx/ZZdMpIFVvjAAAKuUlEQVR4nO3cC3+ayBoHYMARwVTiZXO10xitVWOimHQ327M9e07P9/9QZ2AAuQ7vwAxM9se/rSIK8mTeGS6malqXLl26dOnSpUuXLl26dOnSpUvt7A+XYnJoW5Kbb5ujOxUV9Lpv25PO9+MUmz1xwWjZNimRw9Y1BPK8mK5KxO8rkc0XEpE6hTqciveR4Ne2YWGe5QB7Pb1tWZDLlSRgb6rITmMroQ8Gwsu2bX5esSygIsKlrE6ojNCUVqOKCCXWqBpCmTWqhvAo+lhNNeGDKxOogPBSao2qIJS3r1dEKHUcVUEodxxVQfgmdRxVQDiUO462LzysYpsCGnGyLypbrF3hUTeDbTSDO//e32jTDDeezjNjT5qZxcxgAfqaaB3kT6vCoWv6oZsfTIWTeRNm8oUhPG+x6GGbwks3s+ES0qbwDXFu7EBHCOnGhxH23fLNO8fG2Dze7Ujeehhz/GzaEx5W8K0cYPw2fpiHGW52CEObsj3hEVxtA7wde7B+FPJgcwQaWxPCaxR5vn468+fZEassPICB7n2OjzbkGAGasS3hHejnb5oGfs33+cbhtnzIaUnYnwKB234x0DOW/6TaEZLjURjwyAYS4q6M2I7wTocBe2VArxVLCrUV4Rw4zOBhKbDff96yh5s2hNBxFG8AwH5/yK7TNoSlXYcG7UDA/nzMXF8Lwu/AcRSDfB6ReXjUvHACPB7Fj7AmJMJXViM2L9wBzwswFFjSiI0LvwOHGXTPIdwwGrFp4QR6PIpnYCAhMuqiaWHZ/jmMsYU3oXdkU7zahoXQcZSrSEkYZdqsEFyjJh7zAPsPooTXv9XKO3Qc5eyGJMVH8hzC/e+L26ta+QN2wO1nyAVk7C/gwvfR4qJm4D5yVsEnLD5bAQvfb52aPgcO5BxKmYMpVDhZ1AVerNUW/lm7RGmNDqJ3HtAH5ztxQrpC8mfAIawNdIwBjTk4x/cFE8ENneDvh2gQLp16D6DwcFNXeIq/ayaZJxHvWKoXrQwovL6tK2QCs+HdHxavviGhg/iAAzzm6ogPuG0hu0ZzAr2EEWTcutAo3ICC8A0187fiGmlEyF2jJHjDQ3SLV9SIkLtGSdAdxzn+Y3GRNiOsABwMXPj+Yr612xWiSkL4WDNnjDONCKvUqBf4LrHHaMImhNV8pBGPwGve96wmbEC4riocAK8JvzIG0iaEJ06WMTCCezLYQD6aGeLzAuFto0KyxYZBt9sI/pCp4C54QF/jzQ2M9JFh4Fk5caunF0u+jWzh2g7eMsgguA1mRfON1KNgEpUSjyhabJBen/9QsvCUekvusD9DnA9NVLYGocLshY6aPhKXMdzMN1gvXQFc6HgAckNCpynJ8WcFzwVP0FeQrOsLDXwsqNR5f4cBy3MIc3IR/MuZ7d3UrlE/CO9yPs+fk4PR0grlEuYBSyKgRgOje7fpJ3+vbXaPIQ0oWSiiRkMj7u3Gs2Hf/83E2Xi3hfqkCk+mOKGPxKi33W57BpkoH2CaEAr10eheOJeRJrQ4axSBho0KkSbkHEfx3WdJxJUsId9m4Lv7T5KIK9j/x+cW8tWoB/wkiTiFfTHGWZi758/kZKfeJ/04ByiHqB9BwOCYhh6bRcdn0TGNf0eP1eizjm0b4R/D9v6R2+AhnWHY9IF3FwI9ovfYf70RLhWuw7bDn1LwpL8+O/bSnMW8Q3eo0GEeYjuJWaRG7SDRRF4M/9kzkBJLYyTWynwH2159A7chPKRGORIHAokcQVsYkPP8cFAZKJw4/S5B6KxrAAUTwU3II+Sq0SxQLPEJ/OU0PMLEW+jBPzjQJxYvwkx6sdUzFMghdNZ6nKUn7/WYWi8Afvp0ROFiWaquR6tOyrz5uq7Hf6irBzAQLiTHo/4JgLcpUWz65t4UvaGPioCfUbicnl7w/MDOeyKxEHqaw4EcbYh0aAqBGLwKVlyT66vaoEJSo7WB8J8RI2jF+S1mQKFzMVAD6Nq837UHFYI3QWqJYt4GBAvhNSoV6G4rfFkiFTrR4XVmgp5bGHWBAkqUuwcGwpvo4u9F9Pd8wTs4d4Jun0yga1b7ve79y6j0rNda2+UbwATWL9EqPTDI5Gsp8aIusHYLGtNjjV/Mn1hWiRC4gfKA6GlY3ecRr9itCBxH5QHdbd3/WXGwWERgjUrrg3jKcZhdSHQYRFgTSGvBWj0wRrwq6ovAcVQWED31Rfg84m1RK4L29bJK1N2K+57Z60U+ETTMSALiab0hNE28qiyUU6LG9E3wf047/MjrhoCNlAPEXCfysFzn7Bet8jaUU6LTu4lwoKYtc0bU0r2hlBbEU/i1NK683xSVKdIR+UsnghtvThnwfHOeRAGdrMRAKHxaj02QBpT2Vd3vN5lWvLAR8nX0LgqdLAb6r9Hjr0XJB+n7aBo/SWpASrzNEE82KkxxHyxepjABdbqT0QNjxOxOo5jIbsFKweBPXCrnX9m+eCpoEQnAleQGpMTMJ/tXf+UShZYoXaP8BvTzM1WoV39qy2kjQCn7wFzibbIFyazlCgys6tPtP94bAhJirC8u/u3PShOFA23k3P7WmFD7+zYF1FKFKrpEdf1kNSqMiIv/RLPiRNEtqK8vyH64UWFAXHyNzToXqmCg14CW03AbatrvhLh4SfxiVUgUXKI6cvwLmlbDQkIcvaR+c4wWqlggacCRRdO0kBAzuyevFcWWqL62ojQu1HL2v8uVUKBun6w2hXlZvok8m4g1oDrCx8+iWlBHUQ9USPjtcZxHrAK0145lKSckwHEOsQIw2QOVEfpAQqzfB1M9UBVhAEy3In8LZnqgIsIImCRWAOY1oALCGDBeqNwl6h+FqihMAM9EfuA6r0AVEKaAYaHylijpgUW+loWX9+N0PCI3sLgB2xZqz+k29IicJVowhCoizCFuvuRcgWM2IIvXvjBLnORcgWM2YAlQknD/60s8vxhXLJPER+/smJxMiWpAacLJbBjPjPXBcoJIfxTLKZDI7oENCh+YH9zFiGFbwwo1cxqhqjAiPp6LefkEaECITw1hQHyMX6EqK1RID1RISInJ4aiECGxAZYQeMT3esvoipAHlXk3kFmrP2R3K8qnoM1TH2/zRaGSNfAe99WeEslEwd6SOMC8FhboeRbFGieQ8tEYqC7WlmyXi04gvSgu1/7rZHhi2Vdhg6ft0kyot/Hl7SgGdqPNFY8ko+hN/6HdKv5OqLPx5Y1lxYvxCxSh3Mm8wVVjoARNEB3AUmk0zwiq/0kmBluXQX2vKudb7wYUhkFTbab1enwqL8aMKz0BvV14Rp7IwDqwZNYUCgWoKf/4QB1RTePi6+IcLtf2FOKKaQm3/IoyoqFCbCCtUVYXiiMoKtf1IDFFdoai+qLBQUKGqLNQmIlpRaaG2d+oTFT4D9rKvX6jNCL8dLllhfPhWvy82Ihw+MDP7xVgVKdToOpN/ZSnvZHGUNx0s1IyQnYcvrHWRnUb6iq/PzJmZe2lYfaFXqOXXfbNXSz+Q0NtplBM/tFDbL2oQP4Qw3hf/oUJYX/zQwhp98aMIvQsb1YQ31x9E6B3AVRPCvtxZAWHFvrj4SwZQjtA766/QhFKKVJKwyk7j5m8pQFlC7kJdyAJqk82MJ6xzi9SKX37ccOR/Fb4REbolXOEY7fbXHJEyinbp0qVLly5dunTp0qVLly5dPmz+Dy7cIgRZPJEYAAAAAElFTkSuQmCC" vertex="1" parent="1">
          <mxGeometry x="595" y="598.24" width="51.5" height="51.5" as="geometry" />
        </mxCell>
        <mxCell id="y4IVKAAIsv4u7UtEAo2L-22" style="edgeStyle=orthogonalEdgeStyle;rounded=0;orthogonalLoop=1;jettySize=auto;html=1;strokeColor=#FFD966;" edge="1" parent="1" source="y4IVKAAIsv4u7UtEAo2L-11" target="y4IVKAAIsv4u7UtEAo2L-9">
          <mxGeometry relative="1" as="geometry" />
        </mxCell>
        <mxCell id="y4IVKAAIsv4u7UtEAo2L-11" value="Git Repo" style="shape=image;verticalLabelPosition=bottom;verticalAlign=top;imageAspect=0;aspect=fixed;image=data:image/png,iVBORw0KGgoAAAANSUhEUgAAAOEAAADhCAMAAAAJbSJIAAAAilBMVEX////wUDPwSSnvRiTwTS/4sqj5vLLvQhvyalT++Pfyb1r4uK7wSyn97Or+8vDwTC76y8T+9vXxVDf71c/yZ1DybFb2nY/82tTzc1/70Mn0hHP1jHz6zMX5w7vxWT7zemf95uLvPhf0gm/xXkT84d33pJf2mov3q5/1k4TvOQrzd2XxWD32pJr0iHiDZPiRAAAKe0lEQVR4nO1da3fqKhCVgNqoTeqrx+rV+urjtrf//+9dn1XiJMMAkwTX2R+7VpHtDMwGNtholIZ4+NwZCCE2P61leZ9aHuLmKIqU2COVg9m26v54x3YsU/ELFYm3qnvkGfNrfge0X+OqO+UT3Z4SWUSdx6q75Q9zeUtwR/GhX3XHfGHeBvgdKCZVd80PuhImuKd4F4naAsbgZSzeQRTn7XyC+ygGP6N2c8bgL8VR4InaTYsieEzUoCkWp+g5igEnagtJ0fNYDHa66fZMCAacqLCSASmOg4xinpKBEzVAAZevZGCKwSVqCy0TGYqhqZsngzKRjWJQRcOsTGQohqRucCUDUgynaJgoGTiKgSQqpUxkKIahbl4sI3igOA4hUfszUiXMUgwiilMXimGoGzeKISRqwylRgygasVsUgygafxO1mGIYifrzd0Ytpli7ujgE/uYUxbqpm7l8vv1jfEfqZreagCg6JmqNisZh677tnWJ9lsSnPRkJHc3fRdH43ZMBx6LTdFOPJfHVnoz/RK1D0dD2ZMDpximK1SdqZus+8p6oVaubmz0ZhqJRaaICW/fgWAxW3YAmBDBR3YpGZVHM2Ta8H3WTa0JY3Ym6Kdi6B6N4SFSVRpHFln8lRaPwdAlWN6so3XzNZpNNenaamlMsX90gp0vgjNp8OU0Z/eHbgrgzXnrRgOyUGsBEvULcGtEGZsmJamBCgIqGhuSZlqqlqhuj0yUsio3GyyprHK4LRUMTAjgWNSw3RIolJWqRnVIDHsU/A1qilqNuCCYEnOJ8RWFYjrrB7JQaQHWj4T2iUeRXN0QTAhrFRFB9N8wUySYEtGg8E/Uqs7qh+2SURCaH5YL6nXGqG1M75XV/frBGp9RGGRPV3E55gZxjrdIsfgeKXBv+Vj6ZAXpJbbkiN8qkbujf9Q4Kn90Ti2ZZ1A3VTnlE2kFnvv7IomEGdUO3Ux4ZvqItxx2SOD1T9K1ubOyUB4ZfTAx9qxs7O+We4RidE/obSyejz6Jha6fczTQbfKax3YTzqG7s7ZRC9P5grQ+rN2t2afJfh2xizT/bN+9pw39O3fnTkHaw9iu3M7ik6KETmKhJOg454kHdkBa8YB9m6Ge4UXRMVDslo0GiyjR5daHoVjQslYzeBfxpgWTiFEWHomGrZHTgu4o7XVNNolormWwX0IrR6H9Vkaj2SiaLdgv9sMSJot2M6lomNIrv6Mf13RLVoi46KZnbLmwge6aG2Gm6oasbNyVzizRao6XfqWhQ1Y3PFD2hrc83wMhxVDekouGsZABkNHgTmmCdKFKWxB6UzC0yDFur7u0Hl6VufCiZW2QZygii6DTdmC6J/SiZG9wwFFAUHdWN0XTjS8lkcctQSIBi/4vbrGmzdW8EgKHqQYnKrG4YysQJAMOcKLImqtXWvRlAhvBYZFQ3xiYEC8AMBZiobkWjIIp8KSpyGSqwaDCpGw4lc0EOQyH+BSjyqBuuMnFCLkMBRnGfqCqSUlq4NXOKhr8FL4x8hnDRmEg1+nlrNp/Xi97Nu5IIQHXDpGQuyGeYM6POf0vbttmhWeCgooHaKZ1RxBCsixpexo5mTTYlc0EhQ7Bo6CH9oI3HTBRZy8QJxQwVGsXGsG1v1mRUMhcUM4THog57s+acfQzugTEEi0YmilSz5mlG3fKPwT1QhqC60UE1a64P/xWPrZwCZKAMc9SNhhlN6rQ/9v/ULGMQCiOGeNFY0qKhBstdCEflhNCIIahuXIIoP3ej1+vedtGHGTAU6QZhuKXNGWrx6GIUoMGIoUTPcL5oKSfnjU4pE6kwZCjQA+M3ojH8vTHw0XsTGI1DfDvwiSa/VKfhp/sGMGGYrjGCjWRF+9hBvRgaGDfIdtSaMcRPUhOactsx3HjpvgGMGH4aMCR9qho1fkoq+BWNw3SaN2v7hxHDCXp69Ic2l+4+dUnNa1sYVYvvJcbwgxiRLVnpWcNM0zxhDNekUXVwYW/9EEBhxDCaIgSJl4iO39hbCZs0wlS1KUTU0NZ6pyVww+UcxBxmDKPiX0mKSbNGOjh9X07nIMYwYyiiwsOxD0pP1eDXpvT4UAJFU4ZFJXFLyVGlrqatfgkUDRnCT4adko2yH6F6mtEs4adoylD08syafcrZsFIZJ90j+1g0Zphn1iQdfqvBTWVlj6I5Q7H6BMTbnxGFYPQCfEWUFixAYCii73mGY/LZI41B8KoOc6JSGAolJ93LwUq8fN6QZtHBPxDBHUXWKJIY7n8GUkw/noaP22H3bdImHTyoXg7B3XfFORaJDHfoSdneQUbEje6i22Sc6obO0A5qAEwyV4k6ZqNYEkMlkAUYX9Eoh2FGyUBgE3ClMLxRMmCiMo3FMhgCSgYCU6KWwBBUMhB41A0/w8IyoYMlUdkZ5ioZkCJDFLkZqp7RGDyDQd0wMySk6BGJ99LPy1AJw0nmAu/qhpUhqmTAKPpNVNnTXxvqrjw2bqBkIPhUN2nvLXMRIn4X3k69VGpF0GfRiMZAF4a+vkFDJQNS9NQHuQZvsvRfvYxF1SNPMhf4KRoy93Te5Z3vM8hlQoePRI3yX1Lqux+ZkJQMSNE5imqzLGie/sZdpvXUegye4Tyjtgu74FgWHVP0CEd1g7329eBSM5SwLBM63NRNhGTRk0MQrZQMBBd1o76RxvsP1k4JpzKhw2FJXHBWdgLxFdprgh7G4Bn2RUOiA+UfSxuBg5IBKVpGUS2WWNOJHcOCrXs7WKobtjf3VOQxRY+w2/A3sHFZvZuIbN3bwUrdpJgDyI6hZkLwBxt1Y/B+aTwhM7Rc8OKwUDcGxu3kmzoOPSkZCPSiob7x19qoc6nnMpHpDTlR8XpINN/7VDIQyOoGd25/0lr0qmQgUBNVLZAGE9pDyc4LXgOKxChKJKfmpLWFdyUDgahu0nFxcyRFw6BkIBDVTfFlLdIVZBYlA4GmbgrF95Ly8xZMSgYCTd1E41xdk1D2MNiUjAeKeaZYNzslL2hFQ05B7UZ6uoxVyYC9I0VRQg9Dvmxc7ZS8oKmbVH4u9f9fTilvT7IrGQhEdSMXs+Hver8/nA1orvsSCj1AkaZuVLTa/Hx0u93Wfz+LNu1fy1AyEMh7N4dXkfYPIxGvnFeRokeUcxWlNCUDgdGseSHoa+veDvz3NEpVMhC4b9uUrGQg8Dr8S1cyEDgTtQIlA4HvKkqFZUIHV6JWpGQg8FxFIdopecFxFaU2KXqEf7OmhZ2SF77VTcVKBoLfolG5koHgU92otFZj8Ax/RaMWSgaCL7NmZQteHH6KRs3KhA4fiVrpgheHB7Omu52SF64zai3LhA43dcNoQvAHF3VTQyUDwV7dMJsQ/MF2SVzrMqHDrmjUVslAsFkS11jJQKCrm5JMCP5A3fCvuZKBQLQzlGdC8If+xNxIEoCSAWF8qSkIJQMhXptFMagyoSM2umAYjJIBYZCoASkZCPEao1ijrXs7YIkamJIBUUgxOCUDoShRA1QyEPITNUglAyKnLoaqZCCARaMGJgR/gNRNGq6SgRCvs79bFw3uKIIHfAyu3z5M5dri19BrjuX74mjZU6kUX3eVob94nL93BkKMpk30updH/A8xb7ymvsY7fwAAAABJRU5ErkJggg==" vertex="1" parent="1">
          <mxGeometry x="489.78999999999996" y="657" width="57" height="57" as="geometry" />
        </mxCell>
        <mxCell id="y4IVKAAIsv4u7UtEAo2L-18" style="edgeStyle=orthogonalEdgeStyle;rounded=0;orthogonalLoop=1;jettySize=auto;html=1;strokeColor=#007FFF;" edge="1" parent="1" source="y4IVKAAIsv4u7UtEAo2L-12" target="y4IVKAAIsv4u7UtEAo2L-15">
          <mxGeometry relative="1" as="geometry" />
        </mxCell>
        <mxCell id="y4IVKAAIsv4u7UtEAo2L-19" value="Access Via Private Endpoint" style="edgeLabel;html=1;align=center;verticalAlign=middle;resizable=0;points=[];" vertex="1" connectable="0" parent="y4IVKAAIsv4u7UtEAo2L-18">
          <mxGeometry x="0.1658" y="-2" relative="1" as="geometry">
            <mxPoint as="offset" />
          </mxGeometry>
        </mxCell>
        <mxCell id="y4IVKAAIsv4u7UtEAo2L-12" value="Azure Key Vault" style="image;aspect=fixed;html=1;points=[];align=center;fontSize=12;image=img/lib/azure2/security/Key_Vaults.svg;" vertex="1" parent="1">
          <mxGeometry x="515.79" y="229.99" width="41.16" height="41.16" as="geometry" />
        </mxCell>
        <mxCell id="y4IVKAAIsv4u7UtEAo2L-13" value="ADO Agent VM" style="image;aspect=fixed;html=1;points=[];align=center;fontSize=12;image=img/lib/azure2/compute/Virtual_Machine.svg;" vertex="1" parent="1">
          <mxGeometry x="664" y="229.06" width="44.71" height="41.47" as="geometry" />
        </mxCell>
        <mxCell id="y4IVKAAIsv4u7UtEAo2L-27" style="edgeStyle=orthogonalEdgeStyle;rounded=0;orthogonalLoop=1;jettySize=auto;html=1;dashed=1;strokeColor=#007FFF;" edge="1" parent="1" source="y4IVKAAIsv4u7UtEAo2L-15" target="y4IVKAAIsv4u7UtEAo2L-26">
          <mxGeometry relative="1" as="geometry" />
        </mxCell>
        <mxCell id="y4IVKAAIsv4u7UtEAo2L-28" value="Azure Key Vault Inbound Access" style="edgeLabel;html=1;align=center;verticalAlign=middle;resizable=0;points=[];" vertex="1" connectable="0" parent="y4IVKAAIsv4u7UtEAo2L-27">
          <mxGeometry x="0.0811" y="3" relative="1" as="geometry">
            <mxPoint y="-15" as="offset" />
          </mxGeometry>
        </mxCell>
        <mxCell id="y4IVKAAIsv4u7UtEAo2L-15" value="Private Endpoint" style="image;aspect=fixed;html=1;points=[];align=center;fontSize=12;image=img/lib/azure2/networking/Private_Endpoint.svg;" vertex="1" parent="1">
          <mxGeometry x="510.5799999999999" y="337" width="51.58" height="47.28" as="geometry" />
        </mxCell>
        <mxCell id="y4IVKAAIsv4u7UtEAo2L-16" value="VNET" style="image;aspect=fixed;html=1;points=[];align=center;fontSize=12;image=img/lib/azure2/networking/Virtual_Networks.svg;" vertex="1" parent="1">
          <mxGeometry x="304" y="346.61" width="47" height="28.06" as="geometry" />
        </mxCell>
        <mxCell id="y4IVKAAIsv4u7UtEAo2L-17" value="Virtual Network" style="text;html=1;align=center;verticalAlign=middle;whiteSpace=wrap;rounded=0;" vertex="1" parent="1">
          <mxGeometry x="489.78999999999996" y="165.47" width="105.21" height="30" as="geometry" />
        </mxCell>
        <mxCell id="y4IVKAAIsv4u7UtEAo2L-20" style="edgeStyle=orthogonalEdgeStyle;rounded=0;orthogonalLoop=1;jettySize=auto;html=1;entryX=1.006;entryY=0.47;entryDx=0;entryDy=0;entryPerimeter=0;strokeColor=#d79b00;dashed=1;fillColor=#ffe6cc;" edge="1" parent="1" source="y4IVKAAIsv4u7UtEAo2L-9" target="y4IVKAAIsv4u7UtEAo2L-13">
          <mxGeometry relative="1" as="geometry">
            <Array as="points">
              <mxPoint x="764" y="624" />
              <mxPoint x="764" y="249" />
            </Array>
          </mxGeometry>
        </mxCell>
        <mxCell id="y4IVKAAIsv4u7UtEAo2L-21" value="&lt;font style=&quot;&quot;&gt;Pipeline Job&amp;nbsp;&lt;/font&gt;&lt;div&gt;&lt;font style=&quot;&quot;&gt;Running on Agent VM&amp;nbsp;&lt;/font&gt;&lt;/div&gt;" style="edgeLabel;html=1;align=center;verticalAlign=middle;resizable=0;points=[];" vertex="1" connectable="0" parent="y4IVKAAIsv4u7UtEAo2L-20">
          <mxGeometry x="-0.2647" y="4" relative="1" as="geometry">
            <mxPoint x="24" y="-8" as="offset" />
          </mxGeometry>
        </mxCell>
        <mxCell id="y4IVKAAIsv4u7UtEAo2L-31" style="edgeStyle=orthogonalEdgeStyle;rounded=0;orthogonalLoop=1;jettySize=auto;html=1;strokeColor=#00CC00;" edge="1" parent="1" source="y4IVKAAIsv4u7UtEAo2L-23" target="y4IVKAAIsv4u7UtEAo2L-42">
          <mxGeometry relative="1" as="geometry">
            <mxPoint x="471" y="495.4571428571428" as="targetPoint" />
          </mxGeometry>
        </mxCell>
        <mxCell id="y4IVKAAIsv4u7UtEAo2L-32" value="&amp;nbsp;Service Connection Config&amp;nbsp;" style="edgeLabel;html=1;align=center;verticalAlign=middle;resizable=0;points=[];" vertex="1" connectable="0" parent="y4IVKAAIsv4u7UtEAo2L-31">
          <mxGeometry x="0.021" y="-3" relative="1" as="geometry">
            <mxPoint as="offset" />
          </mxGeometry>
        </mxCell>
        <mxCell id="y4IVKAAIsv4u7UtEAo2L-23" value="ADO Variable&amp;nbsp;&lt;div&gt;Configuration&lt;/div&gt;" style="verticalLabelPosition=bottom;html=1;verticalAlign=top;align=center;strokeColor=none;fillColor=#00BEF2;shape=mxgraph.azure.user;" vertex="1" parent="1">
          <mxGeometry x="272" y="471" width="47.5" height="50" as="geometry" />
        </mxCell>
        <mxCell id="y4IVKAAIsv4u7UtEAo2L-26" value="" style="image;sketch=0;aspect=fixed;html=1;points=[];align=center;fontSize=12;image=img/lib/mscae/Key.svg;imageBackground=#262626;" vertex="1" parent="1">
          <mxGeometry x="610.21" y="560.74" width="21.08" height="34" as="geometry" />
        </mxCell>
        <mxCell id="y4IVKAAIsv4u7UtEAo2L-34" style="edgeStyle=orthogonalEdgeStyle;rounded=0;orthogonalLoop=1;jettySize=auto;html=1;entryX=0;entryY=0.5;entryDx=0;entryDy=0;strokeColor=#FFD966;" edge="1" parent="1" source="y4IVKAAIsv4u7UtEAo2L-33" target="y4IVKAAIsv4u7UtEAo2L-11">
          <mxGeometry relative="1" as="geometry">
            <Array as="points">
              <mxPoint x="354" y="623" />
              <mxPoint x="354" y="686" />
            </Array>
          </mxGeometry>
        </mxCell>
        <mxCell id="y4IVKAAIsv4u7UtEAo2L-45" value="Trigger Deployment" style="edgeLabel;html=1;align=center;verticalAlign=middle;resizable=0;points=[];" vertex="1" connectable="0" parent="y4IVKAAIsv4u7UtEAo2L-34">
          <mxGeometry x="-0.2737" y="-1" relative="1" as="geometry">
            <mxPoint x="61" y="-66" as="offset" />
          </mxGeometry>
        </mxCell>
        <mxCell id="y4IVKAAIsv4u7UtEAo2L-47" value="Code Commits" style="edgeLabel;html=1;align=center;verticalAlign=middle;resizable=0;points=[];" vertex="1" connectable="0" parent="y4IVKAAIsv4u7UtEAo2L-34">
          <mxGeometry x="0.3872" y="-2" relative="1" as="geometry">
            <mxPoint as="offset" />
          </mxGeometry>
        </mxCell>
        <mxCell id="y4IVKAAIsv4u7UtEAo2L-46" style="edgeStyle=orthogonalEdgeStyle;rounded=0;orthogonalLoop=1;jettySize=auto;html=1;strokeColor=#FFD966;" edge="1" parent="1" source="y4IVKAAIsv4u7UtEAo2L-33" target="y4IVKAAIsv4u7UtEAo2L-9">
          <mxGeometry relative="1" as="geometry" />
        </mxCell>
        <mxCell id="y4IVKAAIsv4u7UtEAo2L-33" value="Dev Deployment" style="verticalLabelPosition=bottom;html=1;verticalAlign=top;align=center;strokeColor=#d79b00;fillColor=#ffe6cc;shape=mxgraph.azure.user;" vertex="1" parent="1">
          <mxGeometry x="272" y="598.24" width="47.5" height="50" as="geometry" />
        </mxCell>
        <mxCell id="y4IVKAAIsv4u7UtEAo2L-35" value="App&amp;nbsp;&lt;div&gt;Registration&lt;/div&gt;" style="image;aspect=fixed;html=1;points=[];align=center;fontSize=12;image=img/lib/azure2/identity/App_Registrations.svg;" vertex="1" parent="1">
          <mxGeometry x="654.5" y="477.24" width="33" height="33.52" as="geometry" />
        </mxCell>
        <mxCell id="y4IVKAAIsv4u7UtEAo2L-43" style="edgeStyle=orthogonalEdgeStyle;rounded=0;orthogonalLoop=1;jettySize=auto;html=1;dashed=1;endArrow=none;endFill=0;strokeColor=#00CC00;" edge="1" parent="1" source="y4IVKAAIsv4u7UtEAo2L-42" target="y4IVKAAIsv4u7UtEAo2L-35">
          <mxGeometry relative="1" as="geometry" />
        </mxCell>
        <mxCell id="y4IVKAAIsv4u7UtEAo2L-44" value="&amp;nbsp;OR&amp;nbsp;" style="edgeLabel;html=1;align=center;verticalAlign=middle;resizable=0;points=[];" vertex="1" connectable="0" parent="y4IVKAAIsv4u7UtEAo2L-43">
          <mxGeometry x="-0.068" y="1" relative="1" as="geometry">
            <mxPoint as="offset" />
          </mxGeometry>
        </mxCell>
        <mxCell id="y4IVKAAIsv4u7UtEAo2L-42" value="Entra&amp;nbsp;&lt;div&gt;Managed Identity&lt;/div&gt;" style="image;aspect=fixed;html=1;points=[];align=center;fontSize=12;image=img/lib/azure2/identity/Entra_Managed_Identities.svg;" vertex="1" parent="1">
          <mxGeometry x="568.98" y="475.6700000000001" width="41.23" height="36.65" as="geometry" />
        </mxCell>
      </root>
    </mxGraphModel>
  </diagram>
</mxfile>
